<?xml version="1.0" encoding="UTF-8" standalone="no"?>
<!-- Created with Inkscape (http://www.inkscape.org/) -->

<svg
   xmlns:dc="http://purl.org/dc/elements/1.1/"
   xmlns:cc="http://creativecommons.org/ns#"
   xmlns:rdf="http://www.w3.org/1999/02/22-rdf-syntax-ns#"
   xmlns:svg="http://www.w3.org/2000/svg"
   xmlns="http://www.w3.org/2000/svg"
   xmlns:sodipodi="http://sodipodi.sourceforge.net/DTD/sodipodi-0.dtd"
   xmlns:inkscape="http://www.inkscape.org/namespaces/inkscape"
   width="200mm"
   height="100mm"
   viewBox="0 0 200 100"
   version="1.1"
   id="svg4510"
   inkscape:version="0.92.1 r15371"
   sodipodi:docname="aruba.svg">
  <defs
     id="defs4504" />
  <sodipodi:namedview
     id="base"
     pagecolor="#ffffff"
     bordercolor="#666666"
     borderopacity="1.0"
     inkscape:pageopacity="0.0"
     inkscape:pageshadow="2"
     inkscape:zoom="0.98994949"
     inkscape:cx="422.46926"
     inkscape:cy="320.58663"
     inkscape:document-units="mm"
     inkscape:current-layer="layer1"
     showgrid="false"
     inkscape:window-width="1920"
     inkscape:window-height="1017"
     inkscape:window-x="-8"
     inkscape:window-y="-8"
     inkscape:window-maximized="1" />
  <metadata
     id="metadata4507">
    <rdf:RDF>
      <cc:Work
         rdf:about="">
        <dc:format>image/svg+xml</dc:format>
        <dc:type
           rdf:resource="http://purl.org/dc/dcmitype/StillImage" />
        <dc:title></dc:title>
      </cc:Work>
    </rdf:RDF>
  </metadata>
  <g
     inkscape:label="Layer 1"
     inkscape:groupmode="layer"
     id="layer1"
     transform="translate(0,-197)">
    <path
       style="fill:#f5831f;stroke-width:1.34265423"
       inkscape:connector-curvature="0"
       id="path8"
       d="m 113.35946,252.6392 v 0 c 0,10.74119 -8.593,19.46842 -19.065718,19.46842 -10.472731,0 -19.065721,-8.72723 -19.065721,-19.46842 v -16.51469 c 0,0 9.130133,2.28256 9.130133,11.94966 v 4.56503 c 0,5.9076 4.430691,10.60696 9.935588,10.60696 5.504896,0 9.935668,-4.69936 9.935668,-10.60696 v -9.53288 0.13429 c 0.40282,-8.05596 7.25031,-10.60699 8.99582,-11.54689 h 0.1343 V 242.9721 Z M 64.352571,233.30499 c 2.551031,0 4.967834,0.40273 7.116049,1.34258 v 10.20418 c -1.879741,-1.61117 -4.430773,-2.55107 -7.116049,-2.55107 -6.041959,0 -10.875467,4.69936 -10.875467,10.60699 v 19.19995 h -9.130035 v -35.17749 c 0,0 3.759384,0.13429 6.176187,1.87964 3.49091,-3.49092 8.458647,-5.50478 13.829315,-5.50478 m -43.770493,30.0754 c -6.041953,0 -11.0097926,-4.83359 -11.0097926,-10.74119 0,-5.90775 4.9678396,-10.74132 11.0097926,-10.74132 6.041949,0 11.009691,4.83357 11.009691,10.74132 0,5.9076 -4.967742,10.74119 -11.009691,10.74119 m 0,-30.0754 c -11.0097926,0 -19.87135895,8.72723 -19.87135895,19.33421 0,10.74119 8.86156635,19.3342 19.87135895,19.3342 4.56502,0 8.727229,-1.47695 12.083801,-4.02798 2.013985,3.3567 7.787463,4.02798 7.787463,4.02798 v -19.3342 c 0,-10.60698 -8.861573,-19.33421 -19.871264,-19.33421 m 158.835932,30.0754 c -6.04195,0 -11.0098,-4.83359 -11.0098,-10.74119 0,-5.90775 4.96785,-10.74132 11.0098,-10.74132 6.04194,0 11.00979,4.83357 11.00979,10.74132 0,5.9076 -4.96785,10.74119 -11.00979,10.74119 m 0,-30.0754 c -11.0098,0 -19.87126,8.72723 -19.87126,19.33421 0,10.74119 8.86146,19.3342 19.87126,19.3342 4.56505,0 8.72723,-1.47695 12.08393,-4.02798 2.01397,3.3567 7.78734,4.02798 7.78734,4.02798 v -19.3342 c 0,-10.60698 -8.86148,-19.33421 -19.87127,-19.33421 m -42.15932,30.0754 c -6.04194,0 -11.00979,-4.83359 -11.00979,-10.74119 0,-5.90775 4.96785,-10.74132 11.00979,-10.74132 6.04194,0 11.00979,4.83357 11.00979,10.74132 0.1343,5.9076 -4.83359,10.74119 -11.00979,10.74119 m 0,-30.0754 c -4.02796,0 -7.78734,1.20835 -11.00979,3.22234 v -3.08811 c -0.40282,-8.05593 -6.98181,-10.60699 -8.72724,-11.54684 h -0.13429 v 50.21524 c 0,0 5.90765,-0.67127 8.1902,-3.89372 3.35669,2.28255 7.38453,3.7595 11.68107,3.7595 11.00979,0 19.87126,-8.72724 19.87126,-19.3342 0.13429,-10.60698 -8.86147,-19.33421 -19.87126,-19.33421"
       class="st1" />
  </g>
</svg>
