<?xml version="1.0" encoding="utf-8"?>
<!-- Generator: Adobe Illustrator 26.0.2, SVG Export Plug-In . SVG Version: 6.00 Build 0)  -->
<svg version="1.1" id="圖層_1" xmlns="http://www.w3.org/2000/svg" xmlns:xlink="http://www.w3.org/1999/xlink" x="0px" y="0px"
	 viewBox="0 0 256 172" style="enable-background:new 0 0 256 172;" xml:space="preserve">
<style type="text/css">
	.st0{fill:url(#SVGID_1_);}
	.st1{fill:url(#SVGID_00000005244327873142045620000011983228197463156110_);}
	.st2{fill:url(#SVGID_00000033345434097547124360000014566679140997862823_);}
</style>
<linearGradient id="SVGID_1_" gradientUnits="userSpaceOnUse" x1="201.3211" y1="77.019" x2="201.3211" y2="16.604" gradientTransform="matrix(1 0 0 -1 0 146.5)">
	<stop  offset="0" style="stop-color:#F46837"/>
	<stop  offset="1" style="stop-color:#DD5236"/>
</linearGradient>
<path class="st0" d="M167.2,112.4c-11.9-11.7-17.3-26-17.3-42.7c0-16.9,5.5-31.2,17.3-43c5.6-5.8,12.4-10.3,19.9-13.4
	c7.4-3,15.4-4.5,23.4-4.4c15.1-0.3,29.7,5.3,41,15.6c1.7,1.6,1.7,3.2,0.2,4.7l-13.2,13.6c-1.5,1.3-2.9,1.3-4.2,0
	c-6.3-5.7-14.5-8.7-22.9-8.6c-9.5,0-17.4,3.4-23.7,10.2c-3,3.3-5.4,7.1-6.9,11.3c-1.6,4.2-2.3,8.7-2.1,13.1c0,9.4,2.8,17.5,9.2,24.1
	c3.1,3.2,6.8,5.8,10.9,7.5c4.1,1.7,8.5,2.5,12.9,2.4c8.3,0.2,16.3-2.7,22.7-8.1c1.6-1.3,3-1.3,4.4,0.2l13.2,14
	c1.5,1.5,1.4,3-0.2,4.5c-11.1,10.8-25.9,16.6-41.2,16.3c-8,0.2-15.9-1.3-23.3-4.3C179.6,122.5,172.9,118,167.2,112.4L167.2,112.4z"
	/>
<linearGradient id="SVGID_00000150084319619316358750000008850388593306016439_" gradientUnits="userSpaceOnUse" x1="54.3357" y1="77.019" x2="54.3357" y2="16.773" gradientTransform="matrix(1 0 0 -1 0 146.5)">
	<stop  offset="0" style="stop-color:#13ADC7"/>
	<stop  offset="1" style="stop-color:#1497B8"/>
</linearGradient>
<path style="fill:url(#SVGID_00000150084319619316358750000008850388593306016439_);" d="M3.2,126.4V12.2c0-0.4,0.1-0.9,0.2-1.3
	c0.2-0.4,0.4-0.8,0.7-1.1c0.3-0.3,0.6-0.5,0.9-0.7C5.4,9,5.8,8.9,6.2,8.9H47c16.7,1.3,29.2,6.1,40.7,17.9
	c11.5,11.8,16.1,25.2,17.6,42.4c1.4,16.6-5.4,30.9-16.8,42.7c-5.3,5.7-11.8,10.2-18.9,13.3c-7.1,3.1-14.8,4.6-22.5,4.5H6.2
	c-0.4,0-0.8-0.1-1.1-0.3c-0.4-0.2-0.7-0.4-0.9-0.7c-0.3-0.3-0.6-0.7-0.7-1.1C3.3,127.3,3.2,126.8,3.2,126.4L3.2,126.4L3.2,126.4z
	 M29.3,40v64.2h16c9.4,0,17.2-3.4,23.3-10.1c6.2-6.7,9.5-15.7,9.3-24.9c0-9.8-3.1-18-9.3-24.8c-2.9-3.3-6.6-5.9-10.6-7.6
	c-4-1.7-8.4-2.6-12.7-2.5h-16C29.3,34.3,29.3,40,29.3,40z"/>
<linearGradient id="SVGID_00000147902415364212659180000003035735073671038122_" gradientUnits="userSpaceOnUse" x1="127.425" y1="41.945" x2="127.425" y2="-15.447" gradientTransform="matrix(1 0 0 -1 0 146.5)">
	<stop  offset="0" style="stop-color:#7E51C2"/>
	<stop  offset="1" style="stop-color:#945DD6"/>
</linearGradient>
<path style="fill:url(#SVGID_00000147902415364212659180000003035735073671038122_);" d="M153.1,48.9l-25.3,56.8h-1l-27-60.7
	c3.1,7.3,4.7,15.2,5.5,24.3c1,12.1-2.3,23-8.6,32.6l26.8,58.8c0.7,1.3,1.6,1.9,2.9,1.9h1.7c1.2,0,2.2-0.6,2.8-1.9l27.3-59.5
	c-5.7-9.5-8.6-20.4-8.4-31.5C149.8,62.2,150.9,55.3,153.1,48.9L153.1,48.9z"/>
</svg>
