<?xml version="1.0" encoding="utf-8"?>
<!-- Generator: Adobe Illustrator 16.0.0, SVG Export Plug-In . SVG Version: 6.00 Build 0)  -->
<!DOCTYPE svg PUBLIC "-//W3C//DTD SVG 1.1//EN" "http://www.w3.org/Graphics/SVG/1.1/DTD/svg11.dtd">
<svg version="1.1" id="圖層_1" xmlns="http://www.w3.org/2000/svg" xmlns:xlink="http://www.w3.org/1999/xlink" x="0px" y="0px"
	 width="1920px" height="1080px" viewBox="0 0 1920 1080" enable-background="new 0 0 1920 1080" xml:space="preserve">
<g>
	<path d="M988.791,494.352l-69.196,80.181l148.981,169.201c28.818,32.918,53.908,48.945,108.788,52.537h69.806v-2.281
		L988.791,494.352z"/>
	<path d="M1059.121,384.885L1166.715,247c0,0-58.548,0.215-59.04,0.215c-1.018,0-33.597-0.092-49.2,7.86
		c-25.13,12.822-56.938,47.05-56.938,47.05L909.855,403.41c-1.726,1.987,0,154.437,0,154.437l147.3-170.696L1059.121,384.885z"/>
	<path d="M860.862,291.015c-5.949,0-13.038,1.202-21.468,3.853c-17.014,5.317-53.755,36.309-53.755,36.309v36.463v266.89
		c0,35.691,10.796,65.713,48.191,84.839l57.492,31.362v-80.663v-3.483V339.822C891.323,314.316,887.108,291.015,860.862,291.015z"/>
</g>
</svg>
